<svg width="680" height="450" viewBox="0 0 680 450" xmlns="http://www.w3.org/2000/svg">
<rect x="120" y="34" width="440" height="382" rx="26" fill="#fdfcf3" stroke="#ece6d7" stroke-width="1.5"/>
<ellipse cx="330" cy="392" rx="158" ry="17" fill="#000000" opacity="0.05"/>
<rect x="258" y="96" width="182" height="138" rx="14" fill="#ffffff" stroke="#e7e1d4" stroke-width="1.5"/>
<line x1="280" y1="216" x2="420" y2="216" stroke="#dad4c6" stroke-width="2"/>
<rect x="286" y="184" width="24" height="32" rx="3" fill="#d8cfe6"/>
<rect x="318" y="158" width="24" height="58" rx="3" fill="#c7b3d4"/>
<rect x="350" y="132" width="24" height="84" rx="3" fill="#bca4b6"/>
<rect x="382" y="108" width="24" height="108" rx="3" fill="#9e83a6"/>
<path d="M 298 200 L 330 174 L 362 150 L 394 124" fill="none" stroke="#6b4f74" stroke-width="2.5" stroke-linecap="round" stroke-linejoin="round" opacity="0.55"/>
<path d="M 232 340 L 210 392" fill="none" stroke="#4a3d44" stroke-width="9" stroke-linecap="round"/>
<path d="M 268 348 L 268 394" fill="none" stroke="#4a3d44" stroke-width="9" stroke-linecap="round"/>
<path d="M 306 344 L 336 390" fill="none" stroke="#4a3d44" stroke-width="9" stroke-linecap="round"/>
<ellipse cx="252" cy="320" rx="64" ry="52" fill="#4a3d44"/>
<path d="M 206 296 Q 252 278 298 296" fill="none" stroke="#6b5563" stroke-width="6" stroke-linecap="round" opacity="0.7"/>
<path d="M 200 336 Q 252 360 304 336" fill="none" stroke="#6b5563" stroke-width="6" stroke-linecap="round" opacity="0.7"/>
<rect x="306" y="310" width="22" height="16" rx="7" fill="#4a3d44"/>
<ellipse cx="346" cy="312" rx="32" ry="28" fill="#4a3d44"/>
<ellipse cx="406" cy="300" rx="38" ry="35" fill="#4a3d44"/>
<path d="M 332 290 Q 300 250 300 232" fill="none" stroke="#4a3d44" stroke-width="9" stroke-linecap="round"/>
<path d="M 408 268 Q 410 244 398 232" fill="none" stroke="#4a3d44" stroke-width="9" stroke-linecap="round"/>
<path d="M 392 268 Q 384 240 404 226" fill="none" stroke="#4a3d44" stroke-width="5" stroke-linecap="round"/>
<circle cx="405" cy="223" r="6" fill="#bca4b6"/>
<path d="M 420 268 Q 426 242 446 232" fill="none" stroke="#4a3d44" stroke-width="5" stroke-linecap="round"/>
<circle cx="448" cy="230" r="6" fill="#bca4b6"/>
<path d="M 372 286 Q 406 262 440 284 L 434 270 Q 406 254 378 272 Z" fill="#bca4b6"/>
<path d="M 372 286 Q 406 272 440 284" fill="none" stroke="#a68da0" stroke-width="4" stroke-linecap="round"/>
<ellipse cx="420" cy="312" rx="12" ry="14" fill="#ffffff"/>
<circle cx="424" cy="314" r="6.5" fill="#2c2630"/>
<circle cx="427" cy="311" r="2.2" fill="#ffffff"/>
<path d="M 398 332 Q 412 342 426 334" fill="none" stroke="#2c2630" stroke-width="3" stroke-linecap="round"/>
<path d="M 256 250 Q 264 240 274 248" fill="none" stroke="#c7b3d4" stroke-width="3" stroke-linecap="round"/>
<path d="M 232 262 Q 238 250 248 256" fill="none" stroke="#c7b3d4" stroke-width="3" stroke-linecap="round"/>
</svg>
