<svg viewBox="0 0 83 64" fill="none" xmlns="http://www.w3.org/2000/svg">
<path id="Vector" d="M82.4759 4.4827C79.7392 0.617762 75.9253 3.49426 72.5746 4.62022C70.3708 5.34507 67.8716 5.17317 65.6765 5.84932C64.6542 6.13869 63.7072 6.84635 62.7719 7.26751C62.4823 7.38784 62.2564 7.42796 62.1145 7.35919C61.654 6.97241 62.1376 6.1215 62.3114 5.49979C62.6705 4.57724 63.0122 3.5974 62.9051 2.70064C62.1405 -1.75735 54.1593 -0.0268709 52.636 3.08169C51.5964 4.62308 52.1292 7.3506 54.4518 6.79192C55.2482 6.61142 56.0793 6.02982 56.7628 5.43962C57.3448 5.007 59.2707 2.91839 59.5081 3.56589C59.2649 4.66892 58.3642 5.72326 57.8632 6.7604C57.0437 8.17573 56.6035 9.71712 54.9817 9.93773C48.5064 9.85178 49.3086 11.8516 43.618 7.42796C41.6401 6.0556 39.2538 6.44238 37.0992 7.31622C34.8375 8.07259 30.5949 10.8116 29.9028 6.94663C29.6248 4.82364 30.1026 1.82394 27.6295 0.835505C24.554 -0.221693 20.462 2.0245 19.4832 4.98408C18.8982 6.45098 19.6569 8.91777 21.5914 8.37915C23.3 8.02102 24.6206 4.84656 25.6892 3.92974C26.3871 3.49712 25.7066 5.5886 25.6458 5.87797C25.0637 7.95226 24.6669 11.1038 21.8289 10.6454C20.3259 10.4248 18.9532 9.43635 17.5545 8.8748C14.7628 7.55975 12.3533 9.96351 10.3638 11.7255C6.88869 14.8799 1.68756 16.7794 0.181668 21.4953C-0.385939 22.9135 0.395969 25.5264 2.25517 24.303C3.88849 22.8762 4.00722 20.3579 5.51601 18.8107C6.01701 18.1604 7.55186 16.8998 6.5962 18.7133C6.10099 19.6445 5.33936 20.9624 5.46967 22.0597C5.54786 23.0825 6.32688 23.7014 7.18987 23.3318C9.48057 22.0396 8.66101 18.5615 10.5173 16.8912C11.2587 16.4012 11.4614 18.7506 12.4257 17.745C13.5378 16.258 13.5841 13.5677 15.6403 12.7741C17.2852 12.0464 19.3644 12.8744 20.7371 14.1493C22.718 15.8254 22.495 18.6933 20.7661 20.5212C18.8721 22.8333 15.4723 23.7615 14.1112 26.5234C11.9392 31.7349 18.5739 33.7462 21.5625 36.445C23.3667 38.0982 24.5772 40.5764 24.0617 43.0318C23.1118 47.613 18.2003 50.0396 16.5699 54.2885C15.5679 56.5633 16.1297 59.9326 18.849 60.646C20.5112 61.1159 22.5268 60.4827 24.3136 60.6976C27.4557 60.7663 29.7204 64.5711 32.8422 63.9265C33.459 63.7374 33.9108 63.2102 34.0151 62.5856C34.2902 60.1418 31.6954 58.0446 29.6451 57.0103C27.6179 55.7096 23.2479 55.9474 23.1263 53.2685C23.497 50.1027 28.4838 50.0855 28.4027 44.3841C28.4461 41.095 26.6478 38.1354 26.0193 34.9753C25.501 32.371 27.1951 30.5574 28.9558 33.3336C30.7716 36.3276 31.8083 40.4074 34.9678 42.1465C36.187 42.7997 37.7161 42.8971 38.6573 41.9774C40.5976 39.7427 37.7537 37.0839 35.7324 36.0096C31.539 33.9209 30.9946 28.7839 27.5194 28.0935C26.0483 27.7783 25.1332 29.42 24.0819 29.9958C23.7055 30.1506 23.4217 29.8927 23.3927 29.3312C23.8619 24.0251 33.9629 24.6268 34.3133 19.1488C34.3423 17.7994 33.8152 16.3354 34.435 15.0518C35.5586 12.9346 38.0665 11.376 40.4701 11.3559C43.062 11.3502 44.3073 13.9058 45.9985 15.3985C48.5991 17.5759 50.6118 15.261 52.7084 13.8571C53.8929 13.1322 55.0918 13.7626 55.0049 15.1807C54.9586 16.3411 54.3128 17.4527 53.4903 18.3065C51.6746 20.3006 48.7641 20.3922 46.43 21.4638C42.5813 23.157 41.9731 27.4975 44.1017 30.8038C46.737 35.1243 52.7663 39.6396 50.0644 45.2579C48.3992 48.1602 44.7243 49.7388 42.923 52.5838C41.449 54.5463 40.3166 58.4428 43.4617 59.2278C44.8227 59.4914 46.207 58.9356 47.5536 58.7465C49.0595 58.503 50.5625 58.7035 52.0858 59.3567C54.614 60.4111 56.7483 62.6573 59.6471 62.5828C60.846 62.5828 62.2216 61.9152 62.546 60.8208C63.0875 58.8811 61.1993 57.5747 59.4676 56.9215C57.5707 56.1422 55.3553 56.1995 53.499 55.5864C51.5558 55.0162 50.6784 53.0193 51.3357 51.1427C54.2722 44.4901 54.2549 41.3958 51.3039 34.6916C50.2729 32.5285 49.3694 27.5491 53.3368 28.7467C54.8254 29.291 56.2878 30.2594 57.7561 30.715C59.2533 31.2708 60.7418 31.2794 61.877 32.3366C64.9757 36.382 58.2802 38.9663 56.5832 41.9516C55.9345 42.9974 55.4856 44.3096 55.7202 45.5329C55.8824 46.6188 56.9018 47.3436 57.9124 46.8279C59.2185 46.1088 60.4783 44.301 61.9697 43.5074C65.3348 41.6823 68.6564 39.7771 69.4962 35.746C70.2347 32.5429 68.7723 28.8326 65.9313 27.0764C64.1619 25.8988 61.8162 25.7327 59.7977 25.4806C58.1644 25.2972 57.4288 23.8819 58.1905 22.5582C58.7986 21.4065 59.9425 20.567 60.9213 19.7648C62.7284 18.4182 64.3675 16.3439 64.8714 14.1379C65.2073 12.9346 65.1465 11.6539 66.0327 10.7142C67.0926 9.55381 69.7916 9.05816 71.6624 8.25882C73.0438 7.71446 74.4049 6.95522 75.8789 6.72602C77.463 6.40514 78.827 7.45947 78.2362 9.07249C76.4958 13.3471 71.1672 15.9371 70.6691 20.8363C70.562 22.9679 72.8324 23.667 74.2833 22.2115C75.9542 20.7819 76.0614 17.51 77.2632 15.9801C77.9843 15.3097 76.7593 19.7104 78.7199 19.0342C80.4603 17.745 79.6581 14.6221 80.5588 12.7541C81.4768 10.1698 84.0658 7.35919 82.5164 4.53427L82.4846 4.47983L82.4759 4.4827ZM26.3582 2.3024C25.2635 3.09888 22.0287 6.769 20.7806 5.09009C20.4852 4.36523 21.0673 3.56016 21.5798 3.05591C22.5645 2.12477 23.9372 1.51452 25.2519 1.15352C26.4827 0.79826 28.0639 0.801125 26.4132 2.25656L26.3582 2.30527V2.3024ZM60.0612 2.04455C58.4772 2.67486 55.949 4.57151 54.2722 3.90109C53.2558 3.1963 54.5763 2.0245 55.3119 1.66064C56.5745 0.995947 58.1267 0.732364 59.5458 0.712309C60.846 0.692253 61.9697 1.0819 60.1278 2.00731L60.0612 2.04169V2.04455Z" fill="var(--fill-0, #FFFFF7)"/>
</svg>
