<svg viewBox="0 0 37.0989 19.7385" fill="none" xmlns="http://www.w3.org/2000/svg">
<g id="Group">
<path id="Vector" d="M2.61463 16.4231C2.34088 14.1066 2.59899 11.4105 2.46211 9.13317C2.45429 7.78318 1.24195 7.67753 0.334655 7.12579C0.0765438 6.95753 -0.0603332 6.76188 0.0257038 6.57015C0.494996 5.90493 1.62912 5.76407 2.07495 5.01277C2.73196 4.13625 2.29004 2.02323 3.74094 1.85888C5.06278 2.2541 4.61695 4.18321 5.23876 5.05581C5.98963 6.1358 7.93719 5.57624 8.69588 6.56624C8.8093 6.7971 8.56683 7.04362 8.10927 7.22754C7.24499 7.65405 6.03265 7.3958 5.27005 8.02188C4.82813 8.42883 4.84768 9.27013 4.84768 10.4284C4.84768 11.3675 4.84768 12.3653 4.84768 13.2966C4.78511 16.834 5.06278 17.2566 8.0115 18.1879C8.67242 18.4657 9.03221 18.8414 8.44559 19.2953C7.33885 20.0309 5.71588 19.7453 4.5622 19.2014C3.38897 18.5909 2.82973 17.6166 2.62246 16.474L2.61463 16.4192V16.4231Z" fill="var(--fill-0, #FBFBE8)"/>
<path id="Vector_2" d="M11.672 19.3149C10.9172 18.951 11.1714 18.3131 11.1206 17.0923C11.144 12.1149 11.0736 4.17151 11.1479 0.8298C11.2105 0.0432846 12.1413 -0.320626 12.7396 0.352412C13.0251 0.634149 13.1972 1.35806 13.2011 1.90588C13.2871 3.19717 13.0642 5.86585 13.3575 7.04367C13.5179 7.45845 13.8816 7.18845 14.5347 6.76584C16.1068 5.64281 18.7114 5.41194 20.3539 6.64454C22.759 8.62452 22.1059 11.9506 22.2154 14.7445C22.2076 15.7345 22.2389 16.7323 22.192 17.6949C22.1098 19.5379 20.7567 19.8275 20.3109 18.4579C20.1075 17.8005 20.1584 17.0571 20.1466 16.3449C20.1466 15.0849 20.1544 13.5119 20.1388 12.381C20.1114 10.988 20.0058 9.85712 19.3332 8.88669C18.4572 7.54844 16.447 7.34497 15.0939 8.24496C13.2285 9.63799 13.2324 11.5906 13.2128 14.0793C13.0681 15.4175 13.8464 19.804 11.6994 19.3344L11.672 19.3227V19.3149Z" fill="var(--fill-0, #FBFBE8)"/>
<path id="Vector_3" d="M24.6362 12.8936C24.5423 10.2562 25.5982 7.36062 28.1285 6.22976C30.1308 5.29846 32.8918 5.40411 34.6634 6.64063C36.0869 7.60323 36.8456 9.34843 37.0607 11.0075C37.1428 11.6649 37.1037 12.2088 36.8339 12.5454C36.04 13.3827 34.1746 12.9562 32.6572 13.058C31.4292 13.058 29.9001 13.0541 28.8716 13.0619C27.9877 13.0345 26.9983 13.3045 27.053 14.1027C27.0296 14.8893 27.5927 16.1649 28.3905 16.8575C29.4386 17.7771 30.9912 17.9962 32.36 17.6088C33.4393 17.554 36.1495 14.3688 36.4819 16.2353C35.6489 20.9075 24.7809 21.7253 24.6362 12.9601V12.8897V12.8936ZM34.9176 10.8589C35.0975 10.0293 34.3036 8.82409 33.5958 8.28409C32.3717 7.35671 30.5532 7.26671 29.1414 7.8341C27.6005 8.35453 25.4653 11.4967 28.2458 11.4262C29.7671 11.4536 31.6834 11.4302 33.1695 11.438C34.1511 11.4419 34.7533 11.3245 34.902 10.898L34.9137 10.8628L34.9176 10.8589Z" fill="var(--fill-0, #FBFBE8)"/>
</g>
</svg>
