<svg viewBox="0 0 155.997 29.3581" fill="none" xmlns="http://www.w3.org/2000/svg">
<g id="Group">
<path id="Vector" d="M130.644 29.1191C129.514 29.4674 128.192 29.3969 127.03 29.1504C123.554 28.6417 122.819 24.9948 121.692 22.2635C120.222 18.5383 118.982 14.4257 117.453 10.6575C115.646 6.36103 115.482 9.59709 115.486 12.4497C115.447 15.4979 115.462 18.5266 115.544 21.5709C115.58 23.6918 115.803 26.1178 114.805 27.5304C113.945 28.8765 111.571 29.4322 110.691 27.8239C110.026 26.5365 110.245 24.6778 110.281 23.2261C110.374 21.5083 110.488 19.8883 110.539 18.1196C110.703 13.8936 110.629 9.75361 110.758 5.48451C110.812 3.28931 112.22 2.00584 114.418 2.06063C116.202 2.10367 118.497 2.02541 119.768 3.30105C121.059 4.70974 121.634 7.21798 122.4 9.16275C123.55 12.524 124.653 15.7014 125.939 18.9531C126.612 20.4557 127.773 24.4078 128.427 21.9113C129.025 18.507 129.213 14.9736 129.537 11.5771C129.76 9.44449 129.69 6.81885 130.096 4.89365C130.98 1.29759 134.547 2.31497 134.563 5.72321C134.653 10.771 133.847 16.8323 133.315 21.9153C132.885 24.3452 133.511 28.043 130.695 29.0917L130.64 29.1113L130.644 29.1191Z" fill="var(--fill-0, #FBFBE8)"/>
<path id="Vector_2" d="M87.0702 29.1465C81.509 29.1465 79.4637 26.5717 79.3698 21.207C79.2643 17.7205 79.1313 13.0327 79.2212 9.27622C79.4559 1.47759 82.8426 -0.310658 90.3005 0.0415133C92.8268 0.0962955 95.3727 0.115857 97.8795 0.374116C100.801 0.581506 103.233 2.03323 104.043 5.01495C104.68 7.16711 104.708 9.52274 104.841 11.7532C104.962 14.371 104.989 16.9731 104.856 19.5948C104.653 23.05 104.774 26.6852 101.485 28.0235C98.7986 29.1269 95.6074 28.9509 92.776 29.0643C90.8558 29.1035 89.0373 29.1778 87.1366 29.1543H87.0702V29.1465ZM90.9301 4.36931C88.4624 4.40844 86.0729 4.14626 84.6377 6.08712C82.9912 8.75188 83.7695 13.6197 83.7343 16.8792C83.8711 23.1479 84.1645 24.5292 90.848 24.2357C96.1823 23.9892 100.226 25.3822 100.386 18.4131C100.527 15.721 100.519 13.0523 100.335 10.591C100.234 9.11579 100.066 7.59363 99.4126 6.5332C97.8834 3.96235 93.6403 4.55321 91.0044 4.36539H90.934L90.9301 4.36931Z" fill="var(--fill-0, #FBFBE8)"/>
<path id="Vector_3" d="M33.6647 29.1309C26.7895 29.3343 25.5616 25.7383 25.499 19.7005C25.3778 15.8657 25.2643 11.8784 25.4599 8.09059C25.675 2.2015 28.8466 -0.00935576 34.5055 0.0297744C37.7554 0.0180353 41.1851 0.0649951 44.5444 0.479775C48.0563 0.871076 49.9139 2.71019 50.4966 6.18495C51.0207 9.29188 51.0442 12.4301 51.1145 15.541C51.1263 17.3214 51.052 19.274 50.9386 21.2305C50.8369 22.9366 50.6218 24.7952 49.6558 26.2235C47.7161 29.037 44.3841 28.8883 41.1851 29.0174C38.7409 29.0917 36.1793 29.1504 33.7312 29.1348H33.6608L33.6647 29.1309ZM37.0631 4.36931C35.1195 4.36931 33.1641 4.29105 31.8735 5.14018C29.2455 6.97147 29.883 11.0801 29.8204 13.874C29.8986 15.9323 29.8595 18.0962 30.0746 20.1935C30.3327 22.6392 31.2244 24.1339 33.8563 24.2005C36.41 24.3061 39.304 24.2122 41.7482 24.1535C45.5808 24.0674 46.4529 21.8135 46.5585 18.3309C46.6289 15.2671 47.0591 8.24711 45.2953 6.10277C43.6371 4.04844 39.6012 4.53757 37.1335 4.36539H37.0631V4.36931Z" fill="var(--fill-0, #FBFBE8)"/>
<path id="Vector_4" d="M1.88183 28.6027C-0.773582 26.7049 0.133717 22.1853 0.211932 19.3014C0.384006 16.6602 0.60692 13.0289 0.743797 10.3133C0.872852 8.39196 0.849388 6.39632 1.34214 4.5259C2.27682 0.745928 6.64906 0.808535 9.80505 0.550276C12.7108 0.421146 17.1651 -0.0836335 19.1753 1.64983C20.3954 2.78852 20.5206 4.60807 20.4619 6.20067C20.4697 7.90674 19.2378 10.9706 17.2942 9.45238C16.3478 8.61108 15.9763 7.09284 14.8734 6.38067C13.8723 5.66459 11.7331 5.82502 10.1805 5.9698C7.95135 6.08328 5.83953 7.13588 5.49147 9.32325C5.24509 10.5911 5.22163 11.9567 5.08866 13.2715C4.92441 15.2358 4.68585 17.9984 4.51769 20.0645C4.46294 20.8079 4.4121 21.614 4.52942 22.3145C4.7758 24.1653 6.82114 23.9971 8.24466 24.0675C10.0749 24.0675 12.3392 24.2592 13.9114 23.6645C14.7756 23.3553 15.4131 22.7292 15.9215 21.974C16.5746 21.0858 17.4741 19.2545 18.749 20.0214C20.3446 21.3793 19.7619 25.3549 18.7881 27.0531C17.6501 28.9079 15.7964 29.0135 13.1488 29.0957C11.0409 29.1427 8.81954 29.1544 6.69208 29.1857C5.07302 29.1857 3.18803 29.3461 1.92485 28.6379L1.88183 28.6144V28.6027Z" fill="var(--fill-0, #FBFBE8)"/>
<path id="Vector_5" d="M145.849 28.9705C142.99 27.4522 144.817 22.9914 144.238 20.4949C144.034 19.2349 143.424 18.0923 142.72 17.0632C141.923 15.9245 141.414 14.9071 140.968 13.4241C140.358 11.495 139.514 8.72062 138.9 6.72499C138.509 5.20282 137.773 3.79414 138.125 2.26024C138.462 1.12156 139.823 0.589383 141.043 1.59111C143.925 3.49284 143.792 12.8958 147.018 12.3871C150.229 11.2132 150.272 3.63762 153.381 1.86111C154.081 1.47764 154.965 1.45025 155.528 2.0372C157.116 3.73936 154.214 8.98671 153.569 11.135C153.096 12.3362 152.658 13.5023 152.087 14.6488C151.219 16.3823 150.018 17.8223 149.42 19.3953C148.802 20.9018 148.868 22.4318 148.845 24.0988C148.817 26.4309 148.645 29.7179 145.884 28.9861L145.845 28.9705H145.849Z" fill="var(--fill-0, #FBFBE8)"/>
<path id="Vector_6" d="M58.5606 28.8375C56.7891 28.0862 56.5466 25.6757 56.5075 23.9149C56.4215 21.2775 56.4097 18.7419 56.4293 16.1319C56.4449 13.7332 56.484 11.0841 56.5153 8.54065C56.6522 6.61545 56.1242 3.61417 57.9897 2.52635C58.588 2.23679 59.3193 2.33462 59.9099 2.80418C61.6032 4.37721 61.2317 7.20241 61.3568 9.33891C61.4272 12.9819 61.0714 16.4645 61.0714 20.0606C61.0714 22.874 62.3893 24.0714 65.3302 24.1027C66.6129 24.1379 67.9309 24.1379 69.2292 24.1731C71.036 24.2671 73.2104 24.0127 74.6613 25.1005C75.7759 25.9105 75.4982 27.4718 74.4814 28.2153C73.1244 29.3735 69.9762 29.0175 67.837 29.0918C65.7134 29.0918 62.8703 29.0918 61.1613 29.1505C60.3244 29.1701 59.3467 29.1583 58.6115 28.857L58.5685 28.8375H58.5606Z" fill="var(--fill-0, #FBFBE8)"/>
</g>
</svg>
