<svg width="1080" height="1080" viewBox="0 0 1080 1080" fill="none" xmlns="http://www.w3.org/2000/svg">
<g clip-path="url(#clip0_82_2)">
<rect width="1080" height="1080" fill="#FFFFF7"/>
<rect width="1080" height="1080" fill="white"/>
<path d="M962.589 252.788C934.332 212.448 894.951 242.471 860.355 254.224C837.6 261.789 811.795 259.995 789.13 267.052C778.574 270.073 768.797 277.459 759.138 281.855C756.148 283.111 753.816 283.529 752.351 282.812C747.596 278.775 752.59 269.893 754.384 263.404C758.092 253.775 761.62 243.548 760.514 234.188C752.62 187.658 670.211 205.72 654.483 238.165C643.748 254.253 649.25 282.722 673.231 276.891C681.454 275.007 690.036 268.936 697.093 262.776C703.103 258.261 722.987 236.461 725.439 243.219C722.928 254.732 713.628 265.737 708.455 276.562C699.993 291.334 695.448 307.422 678.703 309.725C611.843 308.828 620.126 329.701 561.369 283.529C540.947 269.205 516.308 273.242 494.061 282.363C470.708 290.258 426.902 318.846 419.756 278.505C416.885 256.347 421.819 225.037 396.283 214.721C364.527 203.686 322.276 227.131 312.17 258.021C306.13 273.332 313.964 299.079 333.938 293.457C351.58 289.719 365.215 256.586 376.249 247.017C383.455 242.501 376.428 264.331 375.8 267.351C369.79 289.002 365.694 321.896 336.39 317.111C320.871 314.809 306.698 304.492 292.255 298.631C263.43 284.905 238.552 309.994 218.01 328.385C182.128 361.309 128.425 381.135 112.876 430.357C107.015 445.159 115.088 472.432 134.285 459.663C151.15 444.771 152.376 418.485 167.954 402.337C173.127 395.549 188.975 382.391 179.108 401.32C173.995 411.039 166.13 424.795 167.476 436.248C168.283 446.924 176.327 453.383 185.238 449.525C208.89 436.039 200.428 399.736 219.594 382.302C227.249 377.188 229.342 401.709 239.3 391.213C250.782 375.693 251.26 347.613 272.49 339.33C289.474 331.734 310.944 340.376 325.117 353.684C345.57 371.177 343.267 401.111 325.416 420.19C305.86 444.322 270.756 454.011 256.702 482.838C234.276 537.233 302.781 558.226 333.639 586.395C352.268 603.65 364.767 629.516 359.444 655.144C349.636 702.96 298.923 728.289 282.089 772.636C271.743 796.38 277.544 831.547 305.621 838.993C322.785 843.897 343.596 837.288 362.046 839.531C394.489 840.249 417.872 879.961 450.106 873.233C456.475 871.259 461.139 865.757 462.216 859.238C465.056 833.73 438.265 811.84 417.094 801.045C396.163 787.468 351.042 789.95 349.786 761.99C353.613 728.947 405.104 728.767 404.267 669.259C404.715 634.929 386.146 604.038 379.658 571.054C374.305 543.872 391.798 524.943 409.978 553.92C428.726 585.169 439.431 627.752 472.053 645.904C484.642 652.722 500.43 653.739 510.148 644.139C530.182 620.814 500.819 593.064 479.947 581.85C436.65 560.05 431.028 506.432 395.147 499.226C379.957 495.936 370.508 513.071 359.653 519.082C355.766 520.696 352.836 518.005 352.537 512.144C357.381 456.762 461.678 463.042 465.296 405.866C465.595 391.781 460.153 376.5 466.551 363.103C478.153 341.004 504.048 324.737 528.866 324.527C555.628 324.468 568.486 351.142 585.948 366.722C612.8 389.449 633.582 365.286 655.23 350.633C667.46 343.068 679.839 349.647 678.942 364.449C678.464 376.56 671.796 388.163 663.304 397.074C644.556 417.887 614.504 418.844 590.404 430.028C550.665 447.701 544.385 493.006 566.363 527.515C593.573 572.609 655.828 619.738 627.93 678.379C610.737 708.672 572.792 725.149 554.193 754.843C538.973 775.327 527.282 815.997 559.755 824.19C573.808 826.941 588.101 821.14 602.006 819.167C617.554 816.625 633.073 818.718 648.802 825.536C674.906 836.541 696.943 859.985 726.874 859.208C739.254 859.208 753.457 852.24 756.806 840.817C762.398 820.572 742.902 806.936 725.021 800.118C705.435 791.984 682.56 792.582 663.393 786.183C643.33 780.232 634.269 759.389 641.057 739.802C671.377 670.365 671.198 638.069 640.728 568.094C630.083 545.517 620.754 493.544 661.719 506.044C677.088 511.725 692.189 521.833 707.349 526.588C722.808 532.389 738.177 532.479 749.899 543.513C781.893 585.737 712.761 612.711 695.239 643.87C688.541 654.785 683.906 668.481 686.328 681.25C688.002 692.584 698.528 700.149 708.963 694.767C722.449 687.261 735.456 668.391 750.856 660.108C785.601 641.059 819.898 621.173 828.57 579.099C836.195 545.666 821.094 506.941 791.761 488.61C773.491 476.319 749.271 474.585 728.429 471.953C711.565 470.039 703.97 455.267 711.834 441.451C718.113 429.43 729.924 420.668 740.031 412.295C758.69 398.24 775.614 376.59 780.817 353.564C784.286 341.004 783.658 327.637 792.807 317.829C803.751 305.718 831.62 300.545 850.936 292.201C865.199 286.52 879.253 278.595 894.473 276.203C910.829 272.854 924.913 283.858 918.813 300.694C900.842 345.311 845.823 372.344 840.68 423.479C839.573 445.728 863.016 453.024 877.997 437.833C895.25 422.911 896.357 388.761 908.766 372.792C916.211 365.795 903.563 411.727 923.806 404.67C941.777 391.213 933.494 358.618 942.794 339.12C952.272 312.147 979.004 282.812 963.007 253.326L962.678 252.758L962.589 252.788ZM383.156 230.031C371.853 238.345 338.453 276.651 325.566 259.128C322.516 251.562 328.526 243.159 333.818 237.896C343.985 228.177 358.158 221.808 371.734 218.04C384.442 214.332 400.768 214.362 383.724 229.553L383.156 230.061V230.031ZM731.15 227.34C714.794 233.919 688.69 253.715 671.377 246.718C660.882 239.361 674.517 227.131 682.112 223.333C695.149 216.395 711.176 213.644 725.828 213.435C739.254 213.225 750.856 217.292 731.838 226.951L731.15 227.31V227.34Z" fill="#191816"/>
</g>
<defs>
<clipPath id="clip0_82_2">
<rect width="1080" height="1080" fill="white"/>
</clipPath>
</defs>
</svg>
